# xmcd CD database file
#
# Track frame offsets:
#	150
#	23761
#	42523
#	60585
#	81273
#	100399
#	119586
#	139404
#	161011
#	185095
#	201629
#
# Disc length: 3087 seconds
#
# Revision: 0
# Processed by: cddbd v1.5.1PL2 Copyright (c) Steve Scherf et al.
# Submitted via: CDex 1.51
#
DISCID=a80c0d0b
DTITLE=Reed Gratz - Piano
DYEAR=2000
DGENRE=Jazz
TTITLE0=Child Play
TTITLE1=Aan de Amsterdamse Grachten
TTITLE2=Margrietje
TTITLE3=Wabash County
TTITLE4=Crescent Bay
TTITLE5=Indiana River
TTITLE6=Toca con la Manana
TTITLE7=Lu'Hiy
TTITLE8=Hal'luya
TTITLE9=Miss Otis Regrets
TTITLE10=Do Nothin' Till You Hear From Me
EXTD=YEAR: 2000
EXTT0=
EXTT1=
EXTT2=
EXTT3=
EXTT4=
EXTT5=
EXTT6=
EXTT7=
EXTT8=
EXTT9=
EXTT10=
PLAYORDER=
